bicep_curl
version=1
nRows=227
nColumns=3
inDegrees=yes

# SIMM Motion File Header:
name bicep_curl
datacolumns 3
datarows 227
otherdata 1
range 0.0000 0.2260
endheader
time	/jointset/r_shoulder/r_shoulder_elev/value	/jointset/r_elbow/r_elbow_flex/value
0.0000	0.0000	39.7600
0.0010	0.0000	39.6843
0.0020	0.0000	39.6086
0.0030	0.0000	39.5330
0.0040	0.0000	39.4573
0.0050	0.0000	39.3816
0.0060	0.0000	39.3059
0.0070	0.0000	39.2303
0.0080	0.0000	39.1546
0.0090	0.0000	39.0789
0.0100	0.0000	39.0032
0.0110	0.0000	38.9276
0.0120	0.0000	38.8519
0.0130	0.0000	38.7762
0.0140	0.0000	38.7005
0.0150	0.0000	38.6249
0.0160	0.0000	38.5492
0.0170	0.0000	38.4735
0.0180	0.0000	38.3978
0.0190	0.0000	38.3222
0.0200	0.0000	38.2465
0.0210	0.0000	38.1708
0.0220	0.0000	38.0951
0.0230	0.0000	38.0195
0.0240	0.0000	37.9438
0.0250	0.0000	37.8681
0.0260	0.0000	37.7924
0.0270	0.0000	37.7168
0.0280	0.0000	37.6411
0.0290	0.0000	37.5654
0.0300	0.0000	37.4897
0.0310	0.0000	37.4141
0.0320	0.0000	37.3384
0.0330	0.0000	37.2627
0.0340	0.0000	37.1870
0.0350	0.0000	37.1114
0.0360	0.0000	37.0357
0.0370	0.0000	36.9600
0.0380	0.0000	36.8843
0.0390	0.0000	36.8086
0.0400	0.0000	36.7330
0.0410	0.0000	36.6573
0.0420	0.0000	36.5816
0.0430	0.0000	36.5059
0.0440	0.0000	36.4303
0.0450	0.0000	36.3546
0.0460	0.0000	36.2789
0.0470	0.0000	36.2032
0.0480	0.0000	36.1276
0.0490	0.0000	36.0519
0.0500	0.0000	35.9762
0.0510	0.0000	35.9005
0.0520	0.0000	35.8249
0.0530	0.0000	35.7492
0.0540	0.0000	35.6735
0.0550	0.0000	35.5978
0.0560	0.0000	35.5222
0.0570	0.0000	35.4465
0.0580	0.0000	35.3708
0.0590	0.0000	35.2951
0.0600	0.0000	35.2195
0.0610	0.0000	35.1438
0.0620	0.0000	35.0681
0.0630	0.0000	34.9924
0.0640	0.0000	34.9168
0.0650	0.0000	34.8411
0.0660	0.0000	34.7654
0.0670	0.0000	34.6897
0.0680	0.0000	34.6141
0.0690	0.0000	34.5384
0.0700	0.0000	34.4627
0.0710	0.0000	34.3870
0.0720	0.0000	34.3114
0.0730	0.0000	34.2357
0.0740	0.0000	34.1600
0.0750	0.0000	34.0843
0.0760	0.0000	34.0086
0.0770	0.0000	33.9330
0.0780	0.0000	33.8573
0.0790	0.0000	33.7816
0.0800	0.0000	33.7059
0.0810	0.0000	33.6303
0.0820	0.0000	33.5546
0.0830	0.0000	33.4789
0.0840	0.0000	33.4032
0.0850	0.0000	33.3276
0.0860	0.0000	33.2519
0.0870	0.0000	33.1762
0.0880	0.0000	33.1005
0.0890	0.0000	33.0249
0.0900	0.0000	32.9492
0.0910	0.0000	32.8735
0.0920	0.0000	32.7978
0.0930	0.0000	32.7222
0.0940	0.0000	32.6465
0.0950	0.0000	32.5708
0.0960	0.0000	32.4951
0.0970	0.0000	32.4195
0.0980	0.0000	32.3438
0.0990	0.0000	32.2681
0.1000	0.0000	32.1924
0.1010	0.0000	32.1168
0.1020	0.0000	32.0411
0.1030	0.0000	31.9654
0.1040	0.0000	31.8897
0.1050	0.0000	31.8141
0.1060	0.0000	31.7384
0.1070	0.0000	31.6627
0.1080	0.0000	31.5870
0.1090	0.0000	31.5114
0.1100	0.0000	31.4357
0.1110	0.0000	31.3600
0.1120	0.0000	31.2843
0.1130	0.0000	31.2086
0.1140	0.0000	31.1330
0.1150	0.0000	31.0573
0.1160	0.0000	30.9816
0.1170	0.0000	30.9059
0.1180	0.0000	30.8303
0.1190	0.0000	30.7546
0.1200	0.0000	30.6789
0.1210	0.0000	30.6032
0.1220	0.0000	30.5276
0.1230	0.0000	30.4519
0.1240	0.0000	30.3762
0.1250	0.0000	30.3005
0.1260	0.0000	30.2249
0.1270	0.0000	30.1492
0.1280	0.0000	30.0735
0.1290	0.0000	29.9978
0.1300	0.0000	29.9222
0.1310	0.0000	29.8465
0.1320	0.0000	29.7708
0.1330	0.0000	29.6951
0.1340	0.0000	29.6195
0.1350	0.0000	29.5438
0.1360	0.0000	29.4681
0.1370	0.0000	29.3924
0.1380	0.0000	29.3168
0.1390	0.0000	29.2411
0.1400	0.0000	29.1654
0.1410	0.0000	29.0897
0.1420	0.0000	29.0141
0.1430	0.0000	28.9384
0.1440	0.0000	28.8627
0.1450	0.0000	28.7870
0.1460	0.0000	28.7114
0.1470	0.0000	28.6357
0.1480	0.0000	28.5600
0.1490	0.0000	28.4843
0.1500	0.0000	28.4086
0.1510	0.0000	28.3330
0.1520	0.0000	28.2573
0.1530	0.0000	28.1816
0.1540	0.0000	28.1059
0.1550	0.0000	28.0303
0.1560	0.0000	27.9546
0.1570	0.0000	27.8789
0.1580	0.0000	27.8032
0.1590	0.0000	27.7276
0.1600	0.0000	27.6519
0.1610	0.0000	27.5762
0.1620	0.0000	27.5005
0.1630	0.0000	27.4249
0.1640	0.0000	27.3492
0.1650	0.0000	27.2735
0.1660	0.0000	27.1978
0.1670	0.0000	27.1222
0.1680	0.0000	27.0465
0.1690	0.0000	26.9708
0.1700	0.0000	26.8951
0.1710	0.0000	26.8195
0.1720	0.0000	26.7438
0.1730	0.0000	26.6681
0.1740	0.0000	26.5924
0.1750	0.0000	26.5168
0.1760	0.0000	26.4411
0.1770	0.0000	26.3654
0.1780	0.0000	26.2897
0.1790	0.0000	26.2141
0.1800	0.0000	26.1384
0.1810	0.0000	26.0627
0.1820	0.0000	25.9870
0.1830	0.0000	25.9114
0.1840	0.0000	25.8357
0.1850	0.0000	25.7600
0.1860	0.0000	25.6843
0.1870	0.0000	25.6086
0.1880	0.0000	25.5330
0.1890	0.0000	25.4573
0.1900	0.0000	25.3816
0.1910	0.0000	25.3059
0.1920	0.0000	25.2303
0.1930	0.0000	25.1546
0.1940	0.0000	25.0789
0.1950	0.0000	25.0032
0.1960	0.0000	24.9276
0.1970	0.0000	24.8519
0.1980	0.0000	24.7762
0.1990	0.0000	24.7005
0.2000	0.0000	24.6249
0.2010	0.0000	24.5492
0.2020	0.0000	24.4735
0.2030	0.0000	24.3978
0.2040	0.0000	24.3222
0.2050	0.0000	24.2465
0.2060	0.0000	24.1708
0.2070	0.0000	24.0951
0.2080	0.0000	24.0195
0.2090	0.0000	23.9438
0.2100	0.0000	23.8681
0.2110	0.0000	23.7924
0.2120	0.0000	23.7168
0.2130	0.0000	23.6411
0.2140	0.0000	23.5654
0.2150	0.0000	23.4897
0.2160	0.0000	23.4141
0.2170	0.0000	23.3384
0.2180	0.0000	23.2627
0.2190	0.0000	23.1870
0.2200	0.0000	23.1114
0.2210	0.0000	23.0357
0.2220	0.0000	22.9600
0.2230	0.0000	22.8843
0.2240	0.0000	22.8086
0.2250	0.0000	22.7330
0.2260	0.0000	22.6573
